{
	"accessors": [
		{
			"bufferView": 11,
			"byteOffset": 0,
			"componentType": 5123,
			"count": 6144,
			"max": [
				1089.0
			],
			"min": [
				0.0
			],
			"name": "accessorIndices",
			"normalized": false,
			"type": "SCALAR"
		},
		{
			"bufferView": 12,
			"byteOffset": 0,
			"componentType": 5123,
			"count": 51840,
			"max": [
				10991.0
			],
			"min": [
				0.0
			],
			"name": "accessorIndices",
			"normalized": false,
			"type": "SCALAR"
		},
		{
			"bufferView": 13,
			"byteOffset": 0,
			"componentType": 5123,
			"count": 10752,
			"max": [
				1856.0
			],
			"min": [
				0.0
			],
			"name": "accessorIndices",
			"normalized": false,
			"type": "SCALAR"
		},
		{
			"bufferView": 14,
			"byteOffset": 0,
			"componentType": 5123,
			"count": 4608,
			"max": [
				923.0
			],
			"min": [
				0.0
			],
			"name": "accessorIndices",
			"normalized": false,
			"type": "SCALAR"
		},
		{
			"bufferView": 15,
			"byteOffset": 0,
			"componentType": 5126,
			"count": 1090,
			"max": [
				0.22971130907535553,
				0.040525034070014954,
				0.22971129417419434
			],
			"min": [
				-0.22971130907535553,
				0.0009741891990415752,
				-0.22971130907535553
			],
			"name": "accessorPositions",
			"normalized": false,
			"type": "VEC3"
		},
		{
			"bufferView": 16,
			"byteOffset": 0,
			"componentType": 5126,
			"count": 1090,
			"max": [
				0.9994295835494995,
				1.0,
				0.9994291663169861
			],
			"min": [
				-0.999428927898407,
				-1.0,
				-0.999428927898407
			],
			"name": "accessorNormals",
			"normalized": false,
			"type": "VEC3"
		},
		{
			"bufferView": 17,
			"byteOffset": 0,
			"componentType": 5126,
			"count": 1090,
			"max": [
				1.0,
				1.0,
				1.0,
				1.0
			],
			"min": [
				0.658823549747467,
				0.658823549747467,
				0.658823549747467,
				1.0
			],
			"name": "accessorColors",
			"normalized": false,
			"type": "VEC4"
		},
		{
			"bufferView": 18,
			"byteOffset": 0,
			"componentType": 5126,
			"count": 1090,
			"max": [
				0.9878709316253662,
				0.971789538860321
			],
			"min": [
				0.011579960584640503,
				0.019218742847442627
			],
			"name": "accessorUVs",
			"normalized": false,
			"type": "VEC2"
		},
		{
			"bufferView": 19,
			"byteOffset": 0,
			"componentType": 5126,
			"count": 10992,
			"max": [
				0.14576111733913422,
				0.0806366577744484,
				0.15495182573795319
			],
			"min": [
				-0.14923882484436035,
				0.003256671829149127,
				-0.15738913416862488
			],
			"name": "accessorPositions",
			"normalized": false,
			"type": "VEC3"
		},
		{
			"bufferView": 20,
			"byteOffset": 0,
			"componentType": 5126,
			"count": 10992,
			"max": [
				0.9998809099197388,
				0.9999387264251709,
				0.9999121427536011
			],
			"min": [
				-0.999859094619751,
				-0.9997966289520264,
				-0.9999996423721313
			],
			"name": "accessorNormals",
			"normalized": false,
			"type": "VEC3"
		},
		{
			"bufferView": 21,
			"byteOffset": 0,
			"componentType": 5126,
			"count": 10992,
			"max": [
				1.0,
				1.0,
				1.0,
				1.0
			],
			"min": [
				1.0,
				1.0,
				1.0,
				1.0
			],
			"name": "accessorColors",
			"normalized": false,
			"type": "VEC4"
		},
		{
			"bufferView": 22,
			"byteOffset": 0,
			"componentType": 5126,
			"count": 10992,
			"max": [
				0.9799999594688416,
				0.9800000190734863
			],
			"min": [
				0.019999999552965164,
				0.07157737016677856
			],
			"name": "accessorUVs",
			"normalized": false,
			"type": "VEC2"
		},
		{
			"bufferView": 23,
			"byteOffset": 0,
			"componentType": 5126,
			"count": 1857,
			"max": [
				0.17807453870773315,
				0.2385636270046234,
				0.17803524434566498
			],
			"min": [
				-0.17803525924682617,
				0.031241746619343758,
				-0.17807453870773315
			],
			"name": "accessorPositions",
			"normalized": false,
			"type": "VEC3"
		},
		{
			"bufferView": 24,
			"byteOffset": 0,
			"componentType": 5126,
			"count": 1857,
			"max": [
				0.9962921738624573,
				1.0,
				0.9969784617424011
			],
			"min": [
				-0.9971122741699219,
				-1.0,
				-0.996292233467102
			],
			"name": "accessorNormals",
			"normalized": false,
			"type": "VEC3"
		},
		{
			"bufferView": 25,
			"byteOffset": 0,
			"componentType": 5126,
			"count": 1857,
			"max": [
				1.0,
				1.0
			],
			"min": [
				-4.470348358154297e-08,
				0.0
			],
			"name": "accessorUVs",
			"normalized": false,
			"type": "VEC2"
		},
		{
			"bufferView": 26,
			"byteOffset": 0,
			"componentType": 5126,
			"count": 924,
			"max": [
				0.22836770117282867,
				0.03799545019865036,
				0.22836774587631226
			],
			"min": [
				-0.22836770117282867,
				-2.5810759325395338e-05,
				-0.22836771607398987
			],
			"name": "accessorPositions",
			"normalized": false,
			"type": "VEC3"
		},
		{
			"bufferView": 27,
			"byteOffset": 0,
			"componentType": 5126,
			"count": 924,
			"max": [
				0.9999979734420776,
				1.0,
				0.9999978542327881
			],
			"min": [
				-0.999998152256012,
				-1.0,
				-0.999998152256012
			],
			"name": "accessorNormals",
			"normalized": false,
			"type": "VEC3"
		},
		{
			"bufferView": 28,
			"byteOffset": 0,
			"componentType": 5126,
			"count": 924,
			"max": [
				1.0,
				1.0,
				1.0,
				1.0
			],
			"min": [
				0.686274528503418,
				0.686274528503418,
				0.686274528503418,
				1.0
			],
			"name": "accessorColors",
			"normalized": false,
			"type": "VEC4"
		},
		{
			"bufferView": 29,
			"byteOffset": 0,
			"componentType": 5126,
			"count": 924,
			"max": [
				0.9847031831741333,
				0.9655855298042297
			],
			"min": [
				0.014683425426483154,
				0.025422275066375732
			],
			"name": "accessorUVs",
			"normalized": false,
			"type": "VEC2"
		},
		{
			"bufferView": 30,
			"byteOffset": 0,
			"componentType": 5126,
			"count": 14,
			"max": [
				6.666666507720947
			],
			"min": [
				0.0
			],
			"name": "accessorAnimationInput",
			"normalized": false,
			"type": "SCALAR"
		},
		{
			"bufferView": 31,
			"byteOffset": 0,
			"componentType": 5126,
			"count": 14,
			"max": [
				-0.09869362413883209,
				-0.6301666498184204,
				0.7001854181289673,
				-0.21343956887722015
			],
			"min": [
				-0.21182221174240112,
				-0.6741242408752441,
				0.6746342778205872,
				-0.3207646310329437
			],
			"name": "accessorAnimationRotations",
			"normalized": false,
			"type": "VEC4"
		}
	],
	"animations": [
		{
			"channels": [
				{
					"sampler": 0,
					"target": {
						"node": 2,
						"path": "rotation"
					}
				}
			],
			"name": "glassCover rotation",
			"samplers": [
				{
					"input": 19,
					"interpolation": "LINEAR",
					"output": 20
				}
			]
		}
	],
	"asset": {
		"extras": {
			"created": "Sun Jul 18 18:22:33 2021"
		},
		"generator": "Gestaltor 2021.4.2 Rye Professional - Evaluation day 1/30 (dev-bdd9f55)",
		"version": "2.0"
	},
	"bufferViews": [
		{
			"buffer": 0,
			"byteLength": 409942,
			"byteOffset": 0
		},
		{
			"buffer": 0,
			"byteLength": 228989,
			"byteOffset": 409942
		},
		{
			"buffer": 0,
			"byteLength": 537508,
			"byteOffset": 638931
		},
		{
			"buffer": 0,
			"byteLength": 183816,
			"byteOffset": 1176439
		},
		{
			"buffer": 0,
			"byteLength": 523548,
			"byteOffset": 1360255
		},
		{
			"buffer": 0,
			"byteLength": 543381,
			"byteOffset": 1883803
		},
		{
			"buffer": 0,
			"byteLength": 1841941,
			"byteOffset": 2427184
		},
		{
			"buffer": 0,
			"byteLength": 1672434,
			"byteOffset": 4269125
		},
		{
			"buffer": 0,
			"byteLength": 712065,
			"byteOffset": 5941559
		},
		{
			"buffer": 0,
			"byteLength": 1199857,
			"byteOffset": 6653624
		},
		{
			"buffer": 0,
			"byteLength": 9879,
			"byteOffset": 7853481
		},
		{
			"buffer": 0,
			"byteLength": 12288,
			"byteOffset": 7863360,
			"target": 34963
		},
		{
			"buffer": 0,
			"byteLength": 103680,
			"byteOffset": 7875648,
			"target": 34963
		},
		{
			"buffer": 0,
			"byteLength": 21504,
			"byteOffset": 7979328,
			"target": 34963
		},
		{
			"buffer": 0,
			"byteLength": 9216,
			"byteOffset": 8000832,
			"target": 34963
		},
		{
			"buffer": 0,
			"byteLength": 52320,
			"byteOffset": 8010048,
			"byteStride": 48,
			"target": 34962
		},
		{
			"buffer": 0,
			"byteLength": 52320,
			"byteOffset": 8062368,
			"byteStride": 48,
			"target": 34962
		},
		{
			"buffer": 0,
			"byteLength": 52320,
			"byteOffset": 8114688,
			"byteStride": 48,
			"target": 34962
		},
		{
			"buffer": 0,
			"byteLength": 52320,
			"byteOffset": 8167008,
			"byteStride": 48,
			"target": 34962
		},
		{
			"buffer": 0,
			"byteLength": 527616,
			"byteOffset": 8219328,
			"byteStride": 48,
			"target": 34962
		},
		{
			"buffer": 0,
			"byteLength": 527616,
			"byteOffset": 8746944,
			"byteStride": 48,
			"target": 34962
		},
		{
			"buffer": 0,
			"byteLength": 527616,
			"byteOffset": 9274560,
			"byteStride": 48,
			"target": 34962
		},
		{
			"buffer": 0,
			"byteLength": 527616,
			"byteOffset": 9802176,
			"byteStride": 48,
			"target": 34962
		},
		{
			"buffer": 0,
			"byteLength": 59424,
			"byteOffset": 10329792,
			"byteStride": 32,
			"target": 34962
		},
		{
			"buffer": 0,
			"byteLength": 59424,
			"byteOffset": 10389216,
			"byteStride": 32,
			"target": 34962
		},
		{
			"buffer": 0,
			"byteLength": 59424,
			"byteOffset": 10448640,
			"byteStride": 32,
			"target": 34962
		},
		{
			"buffer": 0,
			"byteLength": 44352,
			"byteOffset": 10508064,
			"byteStride": 48,
			"target": 34962
		},
		{
			"buffer": 0,
			"byteLength": 44352,
			"byteOffset": 10552416,
			"byteStride": 48,
			"target": 34962
		},
		{
			"buffer": 0,
			"byteLength": 44352,
			"byteOffset": 10596768,
			"byteStride": 48,
			"target": 34962
		},
		{
			"buffer": 0,
			"byteLength": 44352,
			"byteOffset": 10641120,
			"byteStride": 48,
			"target": 34962
		},
		{
			"buffer": 0,
			"byteLength": 56,
			"byteOffset": 10685472
		},
		{
			"buffer": 0,
			"byteLength": 224,
			"byteOffset": 10685528
		}
	],
	"buffers": [
		{
			"byteLength": 10685752,
			"uri": "untitled.bin"
		}
	],
	"cameras": [
		{
			"name": "Camera001",
			"perspective": {
				"yfov": 0.457822353,
				"zfar": 10000.0,
				"znear": 0.1
			},
			"type": "perspective"
		}
	],
	"extensionsUsed": [
		"KHR_materials_ior",
		"KHR_materials_specular",
		"KHR_materials_transmission",
		"KHR_materials_volume"
	],
	"images": [
		{
			"bufferView": 0,
			"mimeType": "image/png"
		},
		{
			"bufferView": 1,
			"mimeType": "image/png"
		},
		{
			"bufferView": 2,
			"mimeType": "image/png"
		},
		{
			"bufferView": 3,
			"mimeType": "image/png"
		},
		{
			"bufferView": 4,
			"mimeType": "image/png"
		},
		{
			"bufferView": 5,
			"mimeType": "image/png"
		},
		{
			"bufferView": 6,
			"mimeType": "image/png"
		},
		{
			"bufferView": 7,
			"mimeType": "image/png"
		},
		{
			"bufferView": 8,
			"mimeType": "image/png"
		},
		{
			"bufferView": 9,
			"mimeType": "image/png"
		},
		{
			"bufferView": 10,
			"mimeType": "image/png"
		}
	],
	"materials": [
		{
			"alphaMode": "OPAQUE",
			"doubleSided": false,
			"emissiveFactor": [
				0.0,
				0.0,
				0.0
			],
			"extensions": {
				"KHR_materials_specular": {
					"specularColorFactor": [
						2.0,
						2.0,
						2.0
					],
					"specularFactor": 1.0
				},
				"KHR_materials_transmission": {
					"transmissionFactor": 1.0
				},
				"KHR_materials_volume": {
					"attenuationColor": [
						1.0,
						1.0,
						1.0
					],
					"thicknessFactor": 0.01
				}
			},
			"name": "glassDish",
			"occlusionTexture": {
				"index": 0,
				"texCoord": 0
			},
			"pbrMetallicRoughness": {
				"baseColorFactor": [
					1.0,
					1.0,
					1.0,
					1.0
				],
				"metallicFactor": 0.0,
				"roughnessFactor": 0.07
			}
		},
		{
			"alphaMode": "OPAQUE",
			"doubleSided": false,
			"emissiveFactor": [
				0.0,
				0.0,
				0.0
			],
			"name": "olives",
			"normalTexture": {
				"index": 2,
				"texCoord": 0
			},
			"occlusionTexture": {
				"index": 3,
				"texCoord": 0
			},
			"pbrMetallicRoughness": {
				"baseColorFactor": [
					1.0,
					1.0,
					1.0,
					1.0
				],
				"baseColorTexture": {
					"index": 1,
					"texCoord": 0
				},
				"metallicFactor": 1.0,
				"metallicRoughnessTexture": {
					"index": 3,
					"texCoord": 0
				},
				"roughnessFactor": 1.0
			}
		},
		{
			"alphaMode": "OPAQUE",
			"doubleSided": false,
			"emissiveFactor": [
				0.0,
				0.0,
				0.0
			],
			"extensions": {
				"KHR_materials_ior": {
					"ior": 1.5
				},
				"KHR_materials_specular": {
					"specularColorFactor": [
						3.0,
						3.0,
						3.0
					],
					"specularFactor": 1.0
				},
				"KHR_materials_transmission": {
					"transmissionFactor": 1.0
				},
				"KHR_materials_volume": {
					"attenuationColor": [
						1.0,
						1.0,
						1.0
					],
					"thicknessFactor": 0.1,
					"thicknessTexture": {
						"index": 8,
						"texCoord": 0
					}
				}
			},
			"name": "glassCover",
			"normalTexture": {
				"index": 4,
				"scale": 2.0,
				"texCoord": 0
			},
			"pbrMetallicRoughness": {
				"baseColorFactor": [
					1.0,
					1.0,
					1.0,
					1.0
				],
				"metallicFactor": 1.0,
				"metallicRoughnessTexture": {
					"index": 5,
					"texCoord": 0
				},
				"roughnessFactor": 1.0
			}
		},
		{
			"alphaCutoff": 0.5,
			"alphaMode": "MASK",
			"doubleSided": false,
			"emissiveFactor": [
				0.0,
				0.0,
				0.0
			],
			"name": "goldLeaf",
			"normalTexture": {
				"index": 7,
				"texCoord": 0
			},
			"occlusionTexture": {
				"index": 0,
				"texCoord": 0
			},
			"pbrMetallicRoughness": {
				"baseColorFactor": [
					1.0,
					1.0,
					1.0,
					1.0
				],
				"baseColorTexture": {
					"index": 6,
					"texCoord": 0
				},
				"metallicFactor": 1.0,
				"metallicRoughnessTexture": {
					"index": 0,
					"texCoord": 0
				},
				"roughnessFactor": 1.0
			}
		}
	],
	"meshes": [
		{
			"name": "glassDish",
			"primitives": [
				{
					"attributes": {
						"COLOR_0": 6,
						"NORMAL": 5,
						"POSITION": 4,
						"TEXCOORD_0": 7
					},
					"indices": 0,
					"material": 0,
					"mode": 4
				}
			]
		},
		{
			"name": "olives",
			"primitives": [
				{
					"attributes": {
						"COLOR_0": 10,
						"NORMAL": 9,
						"POSITION": 8,
						"TEXCOORD_0": 11
					},
					"indices": 1,
					"material": 1,
					"mode": 4
				}
			]
		},
		{
			"name": "glassCover",
			"primitives": [
				{
					"attributes": {
						"NORMAL": 13,
						"POSITION": 12,
						"TEXCOORD_0": 14
					},
					"indices": 2,
					"material": 2,
					"mode": 4
				}
			]
		},
		{
			"name": "goldLeaf",
			"primitives": [
				{
					"attributes": {
						"COLOR_0": 17,
						"NORMAL": 16,
						"POSITION": 15,
						"TEXCOORD_0": 18
					},
					"indices": 3,
					"material": 3,
					"mode": 4
				}
			]
		}
	],
	"nodes": [
		{
			"children": [
				1
			],
			"mesh": 0,
			"name": "glassDish",
			"rotation": [
				0.0,
				0.7660445,
				0.0,
				0.642787635
			]
		},
		{
			"mesh": 1,
			"name": "olives"
		},
		{
			"children": [
				3
			],
			"name": "glassCover_animation",
			"rotation": [
				-0.0986936241,
				-0.63016665,
				0.7001854,
				-0.320764631
			],
			"translation": [
				-0.142956257,
				0.027819138,
				-0.100098975
			]
		},
		{
			"mesh": 2,
			"name": "glassCover",
			"rotation": [
				-0.6532815,
				-0.270597965,
				0.270598024,
				0.6532815
			],
			"translation": [
				-0.174517319,
				3.3170604e-08,
				0.0312397238
			]
		},
		{
			"mesh": 3,
			"name": "goldLeaf",
			"rotation": [
				0.0,
				0.7660445,
				0.0,
				0.642787635
			]
		},
		{
			"camera": 0,
			"name": "Camera001",
			"rotation": [
				-0.162,
				0.688,
				0.162,
				0.688
			],
			"translation": [
				0.8,
				0.5,
				0.0
			]
		}
	],
	"samplers": [
		{
			"magFilter": 9729,
			"minFilter": 9987,
			"wrapS": 10497,
			"wrapT": 10497
		}
	],
	"scene": 1,
	"scenes": [
		{
			"name": "NewScene"
		},
		{
			"nodes": [
				0,
				2,
				4,
				5
			]
		}
	],
	"textures": [
		{
			"sampler": 0,
			"source": 8
		},
		{
			"sampler": 0,
			"source": 3
		},
		{
			"sampler": 0,
			"source": 1
		},
		{
			"sampler": 0,
			"source": 2
		},
		{
			"sampler": 0,
			"source": 4
		},
		{
			"sampler": 0,
			"source": 10
		},
		{
			"sampler": 0,
			"source": 9
		},
		{
			"sampler": 0,
			"source": 7
		},
		{
			"sampler": 0,
			"source": 5
		}
	]
}