{
    "asset" : {
        "generator" : "Khronos glTF Blender I/O v1.6.16",
        "version" : "2.0"
    },
    "scene" : 0,
    "scenes" : [
        {
            "name" : "Scene",
            "nodes" : [
                1,
                3,
                4,
                5
            ]
        }
    ],
    "nodes" : [
        {
            "mesh" : 0,
            "name" : "olives"
        },
        {
            "children" : [
                0
            ],
            "mesh" : 1,
            "name" : "glassDish",
            "rotation" : [
                0,
                0.7660444974899292,
                0,
                0.6427876353263855
            ]
        },
        {
            "mesh" : 2,
            "name" : "glassCover",
            "rotation" : [
                -0.6532815098762512,
                -0.2705979645252228,
                0.27059802412986755,
                0.6532815098762512
            ],
            "translation" : [
                -0.17451731860637665,
                0,
                0.031239723786711693
            ]
        },
        {
            "children" : [
                2
            ],
            "name" : "glassCover_animation",
            "rotation" : [
                -0.09869362413883209,
                -0.6301666498184204,
                0.7001854181289673,
                -0.3207646310329437
            ],
            "translation" : [
                -0.14295625686645508,
                0.027819138020277023,
                -0.10009897500276566
            ]
        },
        {
            "mesh" : 3,
            "name" : "goldLeaf",
            "rotation" : [
                0,
                0.7660444974899292,
                0,
                0.6427876353263855
            ]
        },
        {
            "name" : "Camera001",
            "rotation" : [
                0.37209150195121765,
                0.6012885570526123,
                -0.37209150195121765,
                0.6012885570526123
            ],
            "translation" : [
                0.800000011920929,
                0.5,
                0
            ]
        }
    ],
    "animations" : [
        {
            "channels" : [
                {
                    "sampler" : 0,
                    "target" : {
                        "node" : 3,
                        "path" : "rotation"
                    }
                }
            ],
            "name" : "glassCover rotation",
            "samplers" : [
                {
                    "input" : 19,
                    "interpolation" : "LINEAR",
                    "output" : 20
                }
            ]
        }
    ],
    "materials" : [
        {
            "name" : "olives",
            "normalTexture" : {
                "index" : 0
            },
            "occlusionTexture" : {
                "index" : 1
            },
            "pbrMetallicRoughness" : {
                "baseColorTexture" : {
                    "index" : 2
                },
                "metallicRoughnessTexture" : {
                    "index" : 1
                }
            }
        },
        {
            "name" : "glassDish",
            "occlusionTexture" : {
                "index" : 3
            },
            "pbrMetallicRoughness" : {
                "metallicFactor" : 0,
                "roughnessFactor" : 0.07000000029802322
            }
        },
        {
            "name" : "glassCover",
            "normalTexture" : {
                "index" : 4,
                "scale" : 2
            },
            "pbrMetallicRoughness" : {
                "metallicRoughnessTexture" : {
                    "index" : 5
                }
            }
        },
        {
            "alphaCutoff" : 0.5,
            "alphaMode" : "MASK",
            "name" : "goldLeaf",
            "normalTexture" : {
                "index" : 6
            },
            "occlusionTexture" : {
                "index" : 7
            },
            "pbrMetallicRoughness" : {
                "baseColorTexture" : {
                    "index" : 8
                },
                "metallicRoughnessTexture" : {
                    "index" : 7
                }
            }
        }
    ],
    "meshes" : [
        {
            "name" : "olives",
            "primitives" : [
                {
                    "attributes" : {
                        "POSITION" : 0,
                        "NORMAL" : 1,
                        "TEXCOORD_0" : 2,
                        "COLOR_0" : 3
                    },
                    "indices" : 4,
                    "material" : 0
                }
            ]
        },
        {
            "name" : "glassDish",
            "primitives" : [
                {
                    "attributes" : {
                        "POSITION" : 5,
                        "NORMAL" : 6,
                        "TEXCOORD_0" : 7,
                        "COLOR_0" : 8
                    },
                    "indices" : 9,
                    "material" : 1
                }
            ]
        },
        {
            "name" : "glassCover",
            "primitives" : [
                {
                    "attributes" : {
                        "POSITION" : 10,
                        "NORMAL" : 11,
                        "TEXCOORD_0" : 12
                    },
                    "indices" : 13,
                    "material" : 2
                }
            ]
        },
        {
            "name" : "goldLeaf",
            "primitives" : [
                {
                    "attributes" : {
                        "POSITION" : 14,
                        "NORMAL" : 15,
                        "TEXCOORD_0" : 16,
                        "COLOR_0" : 17
                    },
                    "indices" : 18,
                    "material" : 3
                }
            ]
        }
    ],
    "textures" : [
        {
            "sampler" : 0,
            "source" : 0
        },
        {
            "sampler" : 0,
            "source" : 1
        },
        {
            "sampler" : 0,
            "source" : 2
        },
        {
            "sampler" : 0,
            "source" : 3
        },
        {
            "sampler" : 0,
            "source" : 4
        },
        {
            "sampler" : 0,
            "source" : 5
        },
        {
            "sampler" : 0,
            "source" : 6
        },
        {
            "sampler" : 0,
            "source" : 3
        },
        {
            "sampler" : 0,
            "source" : 7
        }
    ],
    "images" : [
        {
            "mimeType" : "image/png",
            "name" : "Image_1",
            "uri" : "Image_1.png"
        },
        {
            "mimeType" : "image/png",
            "name" : "Image_2",
            "uri" : "Image_2.png"
        },
        {
            "mimeType" : "image/png",
            "name" : "Image_3",
            "uri" : "Image_3.png"
        },
        {
            "mimeType" : "image/png",
            "name" : "Image_8",
            "uri" : "Image_8.png"
        },
        {
            "mimeType" : "image/png",
            "name" : "Image_4",
            "uri" : "Image_4.png"
        },
        {
            "mimeType" : "image/png",
            "name" : "Image_10",
            "uri" : "Image_10.png"
        },
        {
            "mimeType" : "image/png",
            "name" : "Image_7",
            "uri" : "Image_7.png"
        },
        {
            "mimeType" : "image/png",
            "name" : "Image_9",
            "uri" : "Image_9.png"
        }
    ],
    "accessors" : [
        {
            "bufferView" : 0,
            "componentType" : 5126,
            "count" : 10992,
            "max" : [
                0.14576111733913422,
                0.0806366577744484,
                0.15495182573795319
            ],
            "min" : [
                -0.14923882484436035,
                0.003256671829149127,
                -0.15738913416862488
            ],
            "type" : "VEC3"
        },
        {
            "bufferView" : 1,
            "componentType" : 5126,
            "count" : 10992,
            "type" : "VEC3"
        },
        {
            "bufferView" : 2,
            "componentType" : 5126,
            "count" : 10992,
            "type" : "VEC2"
        },
        {
            "bufferView" : 3,
            "componentType" : 5123,
            "count" : 10992,
            "normalized" : true,
            "type" : "VEC4"
        },
        {
            "bufferView" : 4,
            "componentType" : 5123,
            "count" : 51840,
            "type" : "SCALAR"
        },
        {
            "bufferView" : 5,
            "componentType" : 5126,
            "count" : 1281,
            "max" : [
                0.22971130907535553,
                0.040525034070014954,
                0.22971129417419434
            ],
            "min" : [
                -0.22971130907535553,
                0.0009741891990415752,
                -0.22971130907535553
            ],
            "type" : "VEC3"
        },
        {
            "bufferView" : 6,
            "componentType" : 5126,
            "count" : 1281,
            "type" : "VEC3"
        },
        {
            "bufferView" : 7,
            "componentType" : 5126,
            "count" : 1281,
            "type" : "VEC2"
        },
        {
            "bufferView" : 8,
            "componentType" : 5123,
            "count" : 1281,
            "normalized" : true,
            "type" : "VEC4"
        },
        {
            "bufferView" : 9,
            "componentType" : 5123,
            "count" : 6144,
            "type" : "SCALAR"
        },
        {
            "bufferView" : 10,
            "componentType" : 5126,
            "count" : 1858,
            "max" : [
                0.17807453870773315,
                0.2385636270046234,
                0.17803524434566498
            ],
            "min" : [
                -0.17803525924682617,
                0.031241746619343758,
                -0.17807453870773315
            ],
            "type" : "VEC3"
        },
        {
            "bufferView" : 11,
            "componentType" : 5126,
            "count" : 1858,
            "type" : "VEC3"
        },
        {
            "bufferView" : 12,
            "componentType" : 5126,
            "count" : 1858,
            "type" : "VEC2"
        },
        {
            "bufferView" : 13,
            "componentType" : 5123,
            "count" : 10752,
            "type" : "SCALAR"
        },
        {
            "bufferView" : 14,
            "componentType" : 5126,
            "count" : 924,
            "max" : [
                0.22836770117282867,
                0.03799545019865036,
                0.22836774587631226
            ],
            "min" : [
                -0.22836770117282867,
                -2.5810759325395338e-05,
                -0.22836771607398987
            ],
            "type" : "VEC3"
        },
        {
            "bufferView" : 15,
            "componentType" : 5126,
            "count" : 924,
            "type" : "VEC3"
        },
        {
            "bufferView" : 16,
            "componentType" : 5126,
            "count" : 924,
            "type" : "VEC2"
        },
        {
            "bufferView" : 17,
            "componentType" : 5123,
            "count" : 924,
            "normalized" : true,
            "type" : "VEC4"
        },
        {
            "bufferView" : 18,
            "componentType" : 5123,
            "count" : 4608,
            "type" : "SCALAR"
        },
        {
            "bufferView" : 19,
            "componentType" : 5126,
            "count" : 161,
            "max" : [
                6.666666666666667
            ],
            "min" : [
                0
            ],
            "type" : "SCALAR"
        },
        {
            "bufferView" : 20,
            "componentType" : 5126,
            "count" : 161,
            "type" : "VEC4"
        }
    ],
    "bufferViews" : [
        {
            "buffer" : 0,
            "byteLength" : 131904,
            "byteOffset" : 0
        },
        {
            "buffer" : 0,
            "byteLength" : 131904,
            "byteOffset" : 131904
        },
        {
            "buffer" : 0,
            "byteLength" : 87936,
            "byteOffset" : 263808
        },
        {
            "buffer" : 0,
            "byteLength" : 87936,
            "byteOffset" : 351744
        },
        {
            "buffer" : 0,
            "byteLength" : 103680,
            "byteOffset" : 439680
        },
        {
            "buffer" : 0,
            "byteLength" : 15372,
            "byteOffset" : 543360
        },
        {
            "buffer" : 0,
            "byteLength" : 15372,
            "byteOffset" : 558732
        },
        {
            "buffer" : 0,
            "byteLength" : 10248,
            "byteOffset" : 574104
        },
        {
            "buffer" : 0,
            "byteLength" : 10248,
            "byteOffset" : 584352
        },
        {
            "buffer" : 0,
            "byteLength" : 12288,
            "byteOffset" : 594600
        },
        {
            "buffer" : 0,
            "byteLength" : 22296,
            "byteOffset" : 606888
        },
        {
            "buffer" : 0,
            "byteLength" : 22296,
            "byteOffset" : 629184
        },
        {
            "buffer" : 0,
            "byteLength" : 14864,
            "byteOffset" : 651480
        },
        {
            "buffer" : 0,
            "byteLength" : 21504,
            "byteOffset" : 666344
        },
        {
            "buffer" : 0,
            "byteLength" : 11088,
            "byteOffset" : 687848
        },
        {
            "buffer" : 0,
            "byteLength" : 11088,
            "byteOffset" : 698936
        },
        {
            "buffer" : 0,
            "byteLength" : 7392,
            "byteOffset" : 710024
        },
        {
            "buffer" : 0,
            "byteLength" : 7392,
            "byteOffset" : 717416
        },
        {
            "buffer" : 0,
            "byteLength" : 9216,
            "byteOffset" : 724808
        },
        {
            "buffer" : 0,
            "byteLength" : 644,
            "byteOffset" : 734024
        },
        {
            "buffer" : 0,
            "byteLength" : 2576,
            "byteOffset" : 734668
        }
    ],
    "samplers" : [
        {
            "magFilter" : 9729,
            "minFilter" : 9987
        }
    ],
    "buffers" : [
        {
            "byteLength" : 737244,
            "uri" : "untitled.bin"
        }
    ]
}
